<?xml version="1.0" encoding="UTF-8" standalone="no"?>
<!-- Created with Inkscape (http://www.inkscape.org/) -->

<svg
   xmlns:dc="http://purl.org/dc/elements/1.1/"
   xmlns:cc="http://creativecommons.org/ns#"
   xmlns:rdf="http://www.w3.org/1999/02/22-rdf-syntax-ns#"
   xmlns:svg="http://www.w3.org/2000/svg"
   xmlns="http://www.w3.org/2000/svg"
   xmlns:xlink="http://www.w3.org/1999/xlink"
   xmlns:sodipodi="http://sodipodi.sourceforge.net/DTD/sodipodi-0.dtd"
   xmlns:inkscape="http://www.inkscape.org/namespaces/inkscape"
   width="426.66666"
   height="426.66666"
   id="svg2"
   version="1.1"
   inkscape:version="0.92.1 r15371"
   sodipodi:docname="cat.svg">
  <defs
     id="defs4">
    <linearGradient
       inkscape:collect="always"
       id="linearGradient3880">
      <stop
         style="stop-color:#000000;stop-opacity:1;"
         offset="0"
         id="stop3882" />
      <stop
         style="stop-color:#000000;stop-opacity:0;"
         offset="1"
         id="stop3884" />
    </linearGradient>
    <radialGradient
       inkscape:collect="always"
       xlink:href="#linearGradient3880"
       id="radialGradient3888"
       cx="336.37061"
       cy="327.76389"
       fx="336.37061"
       fy="327.76389"
       r="200.75"
       gradientUnits="userSpaceOnUse"
       spreadMethod="reflect" />
  </defs>
  <sodipodi:namedview
     id="base"
     pagecolor="#ffffff"
     bordercolor="#666666"
     borderopacity="1.0"
     inkscape:pageopacity="0.0"
     inkscape:pageshadow="2"
     inkscape:zoom="1.979899"
     inkscape:cx="67.737354"
     inkscape:cy="203.56853"
     inkscape:document-units="px"
     inkscape:current-layer="layer1"
     showgrid="false"
     inkscape:window-width="1920"
     inkscape:window-height="1027"
     inkscape:window-x="1912"
     inkscape:window-y="-8"
     inkscape:window-maximized="1" />
  <metadata
     id="metadata7">
    <rdf:RDF>
      <cc:Work
         rdf:about="">
        <dc:format>image/svg+xml</dc:format>
        <dc:type
           rdf:resource="http://purl.org/dc/dcmitype/StillImage" />
        <dc:title />
      </cc:Work>
    </rdf:RDF>
  </metadata>
  <g
     inkscape:label="Layer 1"
     inkscape:groupmode="layer"
     id="layer1"
     transform="translate(0,-695.85299)">
    <g
       id="g3908">
      <rect
         y="696.65002"
         x="0.7970112"
         height="425.07266"
         width="425.07266"
         id="rect3890"
         style="fill:#784421;fill-opacity:1;stroke:#000000;stroke-width:1.59402239;stroke-linecap:round;stroke-linejoin:round;stroke-miterlimit:4;stroke-dasharray:none;stroke-opacity:1" />
      <rect
         style="fill:#a05a2c;fill-opacity:1;stroke:none;stroke-width:1.25228584;stroke-linecap:round;stroke-linejoin:round;stroke-miterlimit:4;stroke-dasharray:none;stroke-opacity:1"
         id="rect3894"
         width="16.881048"
         height="425.4144"
         x="366.97479"
         y="696.47913" />
      <rect
         style="fill:#a05a2c;fill-opacity:1;stroke:none;stroke-width:1.25228584;stroke-linecap:round;stroke-linejoin:round;stroke-miterlimit:4;stroke-dasharray:none;stroke-opacity:1"
         id="rect3904"
         width="16.881048"
         height="425.4144"
         x="310.40628"
         y="696.47913" />
      <rect
         y="696.47913"
         x="250.60522"
         height="425.4144"
         width="16.881048"
         id="rect3902"
         style="fill:#a05a2c;fill-opacity:1;stroke:none;stroke-width:1.25228584;stroke-linecap:round;stroke-linejoin:round;stroke-miterlimit:4;stroke-dasharray:none;stroke-opacity:1" />
      <rect
         style="fill:#a05a2c;fill-opacity:1;stroke:none;stroke-width:1.25228584;stroke-linecap:round;stroke-linejoin:round;stroke-miterlimit:4;stroke-dasharray:none;stroke-opacity:1"
         id="rect3900"
         width="16.881048"
         height="425.4144"
         x="189.18796"
         y="696.47913" />
      <rect
         y="696.47913"
         x="137.46817"
         height="425.4144"
         width="16.881048"
         id="rect3898"
         style="fill:#a05a2c;fill-opacity:1;stroke:none;stroke-width:1.25228584;stroke-linecap:round;stroke-linejoin:round;stroke-miterlimit:4;stroke-dasharray:none;stroke-opacity:1" />
      <rect
         style="fill:#a05a2c;fill-opacity:1;stroke:none;stroke-width:1.25228584;stroke-linecap:round;stroke-linejoin:round;stroke-miterlimit:4;stroke-dasharray:none;stroke-opacity:1"
         id="rect3896"
         width="16.881048"
         height="425.4144"
         x="83.054596"
         y="696.47913" />
      <rect
         y="696.47913"
         x="30.79603"
         height="425.4144"
         width="16.881048"
         id="rect3892"
         style="fill:#a05a2c;fill-opacity:1;stroke:none;stroke-width:1.25228584;stroke-linecap:round;stroke-linejoin:round;stroke-miterlimit:4;stroke-dasharray:none;stroke-opacity:1" />
      <g
         transform="matrix(1.4018411,0,0,1.4018411,-283.62433,81.758048)"
         id="g3853">
        <g
           id="g3824">
          <path
             inkscape:connector-curvature="0"
             id="path3000"
             d="m 287.42207,469.28768 h 5.38748 l 14.27683,5.65685 8.61997,5.11812 7.2731,3.50185 12.92995,11.04434 17.77867,-1.34687 -5.92622,-3.77124 35.82675,0.53875 -1.61625,-1.34687 10.77496,3.23248 7.54247,-12.66057 10.23621,-10.23622 23.70492,-14.54619 4.57935,15.35432 1.07751,9.69746 -0.26938,12.92996 -2.69374,12.92995 -0.26938,2.96311 9.42809,11.04433 4.57936,14.81558 1.34687,15.08495 5.11811,4.84872 5.38748,13.4687 h -6.19561 l 14.81558,13.46871 h -9.15872 l 10.77496,14.81557 4.30999,16.70119 -8.3506,-2.155 14.5462,17.77869 12.12183,29.09239 -10.23622,-6.73435 5.92623,12.3912 0.53875,9.15872 0.26938,-7.27309 11.58308,14.54619 1.88561,18.58681 0.53875,43.36921 -237.85724,0.26938 2.15498,-62.2254 10.23622,-21.81929 -3.23249,-0.53875 1.88562,-17.23994 4.57936,-7.2731 -6.73436,5.65685 0.53875,-10.50557 3.23249,-7.54248 -6.46498,5.1181 v -4.57936 l 7.00372,-12.12182 7.81185,-11.31371 2.155,-2.96311 -3.77124,2.69374 -0.80812,-4.04061 -4.84873,2.15498 -0.53876,-4.0406 3.23249,-4.84874 -7.81184,1.34687 3.50186,-4.57936 2.42437,-7.54246 1.61624,-17.23994 4.57936,-19.66431 5.38749,-12.92995 -2.69375,-11.31371 -1.88561,-14.27682 -1.07751,-14.00745 z"
             style="fill:#352a13;fill-opacity:1;stroke:#000000;stroke-width:1.60000002;stroke-linecap:round;stroke-linejoin:round;stroke-miterlimit:4;stroke-dasharray:none;stroke-opacity:1" />
          <path
             inkscape:connector-curvature="0"
             id="path3006"
             d="m 296.04204,525.04811 7.81185,-7.54248 8.08121,-7.81185 11.31371,-6.1956 v -2.42437 l -7.00372,-10.50559 -13.19933,-11.04433 -7.81184,-6.73434 -5.38749,-2.96312 -1.07749,7.2731 1.07749,11.85246 1.61625,18.04805 1.61624,11.85246 z"
             style="fill:#f9fbf7;fill-opacity:1;stroke:#000000;stroke-width:1.06666672px;stroke-linecap:butt;stroke-linejoin:miter;stroke-opacity:1" />
          <path
             inkscape:connector-curvature="0"
             id="path3008"
             d="m 402.1754,497.57196 3.77123,-5.65687 6.19561,-8.35059 7.81184,-9.69746 6.46498,-6.73435 7.54248,-7.00373 3.23249,9.69747 1.07749,12.66058 -0.26938,8.61997 -1.07749,10.50559 -1.88562,5.65685 -6.73435,0.53874 -8.3506,-5.38748 -6.73435,-0.53874 -8.35059,-2.155 z"
             style="fill:#f6f7f4;fill-opacity:1;stroke:#000000;stroke-width:1.06666672px;stroke-linecap:butt;stroke-linejoin:miter;stroke-opacity:1" />
          <path
             inkscape:connector-curvature="0"
             id="path3022"
             d="m 286.61395,594.54659 6.46497,-8.35059 9.4281,-7.00372 0.53874,-1.61625 -6.46497,-0.80812 15.08494,-10.77496 29.36177,-25.05178 7.00372,-15.89306 7.00372,9.15871 6.19561,-16.97056 7.00372,15.08495 3.50187,0.80811 1.88562,-8.61997 4.04061,9.96684 h 1.61624 l 2.42437,-3.77123 4.0406,7.2731 38.78986,20.47241 8.61997,1.07751 6.73436,3.77123 -6.19561,4.57936 2.42436,0.53875 6.46498,0.80812 14.81558,10.77497 7.2731,10.50557 0.80811,10.50559 -1.61624,9.96684 -4.84874,12.39121 -4.04061,6.73435 8.61997,-0.53875 -5.65685,13.4687 -5.38748,8.35059 -3.23249,8.88935 1.61625,2.96311 6.1956,0.80812 13.19933,-5.1181 2.15499,2.15498 -4.57936,6.19561 4.84873,0.26937 2.96312,-2.15499 10.23621,1.0775 4.04061,5.65685 1.88562,-0.53875 v -4.84872 l 11.31371,13.46869 1.88562,18.85618 v 41.21423 l -236.77977,0.26937 2.42438,-61.1479 10.50557,-22.08867 -3.77123,-0.26937 2.155,-16.70119 5.65685,-8.61997 -7.81185,5.65686 1.0775,-9.15872 2.42437,-8.88935 -6.19561,4.57936 -0.53875,-2.15498 8.08123,-12.66059 10.23621,-15.35432 -5.11811,2.96312 z"
             style="fill:#ffffff;fill-opacity:1;stroke:#000000;stroke-width:1.06666672px;stroke-linecap:butt;stroke-linejoin:miter;stroke-opacity:1" />
          <path
             inkscape:connector-curvature="0"
             id="path3010"
             d="m 363.92429,572.72731 h 3.23249 l 3.23249,-1.88562 -0.53875,1.88562 -2.15499,1.61623 -0.53875,3.23249 2.42436,0.26938 8.08123,2.155 -0.26938,1.07749 -4.84873,0.26937 -5.38748,-2.15499 h -1.34687 l -4.30998,2.15499 -5.11812,0.26937 h -0.80811 l 0.26937,-1.61623 4.04061,-0.26938 5.38748,-2.69374 -0.26937,-2.155 -1.88562,-1.07749 z"
             style="fill:#000000;stroke:#000000;stroke-width:1.06666672px;stroke-linecap:butt;stroke-linejoin:miter;stroke-opacity:1" />
          <ellipse
             id="path3002"
             style="fill:#ffffff;fill-opacity:1;stroke:#000000;stroke-width:1.06666672"
             cx="327.96286"
             cy="554.27515"
             rx="17.913372"
             ry="18.182745" />
          <ellipse
             id="path3004"
             style="fill:#ffffff;fill-opacity:1;stroke:#000000;stroke-width:1.06666672"
             cx="404.86914"
             cy="546.05927"
             rx="19.394928"
             ry="19.664303" />
          <ellipse
             id="path3020"
             style="fill:#000000;stroke:#000000;stroke-width:1.06666672"
             cx="405.27322"
             cy="546.86737"
             rx="14.680883"
             ry="14.007449" />
          <ellipse
             id="path3016"
             style="fill:#000000;stroke:#000000;stroke-width:1.06666672"
             cx="327.15475"
             cy="554.8139"
             rx="13.334014"
             ry="12.795266" />
          <ellipse
             id="path3018"
             style="fill:#ffffff;stroke:#000000;stroke-width:1.06666672"
             cx="326.75067"
             cy="551.98547"
             rx="5.1181059"
             ry="5.9262285" />
          <ellipse
             id="path3012"
             style="fill:#ffffff;stroke:#000000;stroke-width:1.06666672"
             cx="332.27286"
             cy="543.50024"
             rx="6.8690372"
             ry="6.060915" />
          <ellipse
             id="path3808"
             style="fill:#e6e6e6;fill-opacity:1;stroke:#000000;stroke-width:1.60000002;stroke-linecap:round;stroke-linejoin:round;stroke-miterlimit:4;stroke-dasharray:none;stroke-opacity:1"
             cx="410.25662"
             cy="542.82678"
             rx="5.1181059"
             ry="4.848732" />
          <ellipse
             id="path3014"
             style="fill:#ffffff;stroke:#000000;stroke-width:1.06666672"
             cx="407.96692"
             cy="534.07214"
             rx="9.2934027"
             ry="5.5221677" />
        </g>
        <path
           style="fill:#f2f2f2;fill-opacity:1;stroke:#000000;stroke-width:1.60000002;stroke-linecap:round;stroke-linejoin:round;stroke-miterlimit:4;stroke-dasharray:none;stroke-opacity:1"
           d="m 349.42274,607.70626 c -24.98615,8.91172 -43.23414,27.60793 -47,49.93333 -55.23211,1.63718 -99.3,33.89916 -99.3,73.46667 0,3.39132 0.30658,6.73061 0.93333,10 h 205.5 c 0.62726,-3.27065 0.96667,-6.60732 0.96667,-10 0,-37.49874 -39.58134,-68.44039 -90.73333,-72.96667 3.05216,-20.04221 13.92638,-37.75965 29.63333,-50.43333 z"
           id="path3839"
           inkscape:connector-curvature="0" />
      </g>
      <rect
         y="698.48669"
         x="2.6337447"
         height="421.3992"
         width="421.3992"
         id="rect3906"
         style="fill:none;stroke:#000000;stroke-width:5.26748943;stroke-miterlimit:4;stroke-dasharray:none;stroke-opacity:1" />
    </g>
  </g>
</svg>
